<!DOCTYPE svg PUBLIC "-//W3C//DTD SVG 20010904//EN" "http://www.w3.org/TR/2001/REC-SVG-20010904/DTD/svg10.dtd">
<svg version="1.0" xmlns="http://www.w3.org/2000/svg" width="350" height="220" viewBox="0 0 12000 5910" preserveAspectRatio="xMidYMid meet">
<g id="layer101" fill="#00d294" stroke="none">
<path d="M2442 2398 c-7 -7 -12 -36 -12 -65 l0 -53 -600 0 -600 0 0 -964 c0 -530 3 -971 6 -980 6 -14 90 -16 850 -16 l843 0 6 33 c3 17 5 346 3 729 l-3 697 60 3 60 3 3 304 c2 237 -1 306 -10 313 -22 13 -592 10 -606 -4z m-132 -1093 l0 -470 -227 0 -228 0 -3 473 -2 472 230 -2 230 -3 0 -470z"/>
<path d="M3500 1300 l0 -980 304 0 304 0 6 22 c3 13 6 340 6 728 l-1 705 168 3 168 2 -3 -710 c-1 -482 1 -717 8 -730 10 -19 23 -20 315 -20 l305 0 0 980 0 980 -790 0 -790 0 0 -980z"/>
<path d="M5490 1316 c0 -530 3 -971 6 -980 6 -14 79 -16 730 -16 l723 0 6 32 c3 18 5 132 3 253 l-3 220 -418 5 -419 5 0 110 0 110 419 5 418 5 3 225 c1 124 0 235 -3 248 l-5 22 -418 0 -417 0 0 110 0 110 417 0 418 0 5 23 c3 12 4 123 3 247 l-3 225 -732 3 -733 2 0 -964z"/>
<path d="M7370 2030 l0 -250 458 0 457 0 0 -107 0 -108 -455 -5 -455 -5 -3 -595 c-1 -327 0 -605 3 -617 l5 -23 759 0 c683 0 759 2 765 16 3 9 6 123 6 255 l0 239 -457 2 -458 3 0 110 0 110 458 3 457 2 0 610 0 610 -770 0 -770 0 0 -250z"/>
<path d="M9756 2273 c-3 -4 -6 -329 -6 -722 l1 -716 -216 -3 -215 -2 0 -255 0 -255 729 0 c655 0 729 2 735 16 3 9 6 123 6 255 l0 239 -205 0 -205 0 0 725 0 725 -308 0 c-170 0 -312 -3 -316 -7z"/>
</g>
<g id="layer102" fill="#ffffff" stroke="none">
<path d="M416 5504 c-3 -9 -6 -535 -6 -1169 0 -1042 2 -1153 16 -1159 9 -3 397 -6 863 -6 645 0 850 3 859 12 14 14 17 1074 3 1096 -6 10 -31 13 -97 11 -49 -2 -95 0 -102 5 -7 4 -12 27 -12 51 0 54 9 58 119 55 60 -1 86 2 92 12 10 15 12 1051 3 1086 l-6 22 -863 0 c-778 0 -863 -2 -869 -16z m997 -732 l2 -132 -132 0 -133 0 0 135 0 136 131 -3 131 -3 1 -133z m1 -865 l-1 -132 -129 0 -129 0 -3 133 -3 132 133 0 133 0 -1 -133z"/>
<path d="M2690 4351 c0 -1057 2 -1169 16 -1175 29 -11 1984 -7 2005 4 19 10 19 34 19 1153 0 628 -3 1152 -6 1165 l-6 22 -1014 0 -1014 0 0 -1169z m1290 -11 l0 -570 -275 0 -275 0 0 570 0 570 275 0 275 0 0 -570z"/>
<path d="M5226 5498 c-3 -13 -6 -535 -6 -1160 0 -1020 2 -1138 16 -1152 14 -14 106 -16 868 -16 649 0 855 3 864 12 16 16 18 2289 2 2319 -10 18 -25 19 -370 19 l-360 0 -2 -322 -3 -323 -132 -3 -133 -3 0 303 c0 167 -3 313 -6 326 l-6 22 -363 0 -363 0 -6 -22z m1012 -1475 l2 -303 -135 0 -135 0 0 305 0 306 133 -3 132 -3 3 -302z"/>
<path d="M7476 5498 c-3 -13 -6 -536 -6 -1164 0 -873 3 -1143 12 -1152 17 -17 1719 -17 1736 0 9 9 12 167 12 649 0 351 -3 644 -6 653 -5 13 -25 16 -111 16 l-104 0 3 58 3 57 105 5 105 5 3 425 c1 234 0 435 -3 448 l-5 22 -364 0 c-323 0 -365 -2 -370 -16 -3 -9 -6 -207 -6 -440 l0 -424 -130 0 -130 0 0 424 c0 233 -3 431 -6 440 -5 14 -47 16 -369 16 l-363 0 -6 -22z m1006 -1590 l-3 -133 -130 0 -129 0 0 133 0 132 133 0 132 0 -3 -132z"/>
<path d="M9756 5498 c-3 -13 -6 -536 -6 -1164 0 -873 3 -1143 12 -1152 16 -16 1552 -17 1593 -2 26 10 26 11 23 100 -2 68 0 91 10 95 8 3 56 5 108 5 l94 0 -2 948 -3 947 -105 3 -105 3 4 96 c2 64 -1 103 -10 119 l-12 24 -798 0 -797 0 -6 -22z m1092 -1155 l-3 -568 -173 0 -173 0 1 563 c0 309 0 564 0 567 0 3 79 5 175 5 l175 0 -2 -567z"/>
</g>


</svg>